<svg width="10" height="10" viewBox="0 0 10 10" fill="none" xmlns="http://www.w3.org/2000/svg">
<path d="M8.13451 6.35564C7.55556 6.35564 7.0449 6.63146 6.71126 7.05384L3.61673 5.47129C3.65724 5.32019 3.68636 5.16407 3.68636 4.99977C3.68636 4.8209 3.65177 4.6525 3.60352 4.48864L6.6844 2.91339C7.0162 3.35489 7.54007 3.64346 8.13495 3.64346C9.14265 3.64346 9.95781 2.8283 9.95781 1.82151C9.95783 0.815623 9.14265 0 8.13497 0C7.12955 0 6.31349 0.815623 6.31349 1.82148C6.31349 1.98626 6.34262 2.14282 6.38358 2.29438L3.28949 3.87693C2.95541 3.4541 2.44382 3.17738 1.86397 3.17738C0.857176 3.17738 0.0424805 3.99344 0.0424805 4.99977C0.0424805 6.00609 0.857197 6.82172 1.86397 6.82172C2.45975 6.82172 2.98318 6.53225 3.31633 6.0903L6.39584 7.66555C6.34758 7.82895 6.31256 7.99872 6.31256 8.17805C6.31256 9.18438 7.12862 10 8.13404 10C9.14174 10 9.9569 9.18438 9.9569 8.17805C9.95736 7.17082 9.1422 6.35564 8.13451 6.35564Z" fill="#D0CFCF"/>
</svg>
