<svg width="33" height="20" viewBox="0 0 33 20" fill="none" xmlns="http://www.w3.org/2000/svg">
<path d="M30.7048 9.97869C29.8817 9.14823 28.7939 8.64248 27.6392 8.53564C28.636 7.63887 29.2649 6.34424 29.2649 4.89804C29.2649 2.19246 27.0724 0 24.3663 0C21.7818 0 19.6656 2.00195 19.4819 4.53912C21.7812 5.53377 23.3948 7.82517 23.3948 10.4855C23.3948 11.457 23.1738 12.4064 22.7627 13.2679C23.3548 13.5773 23.9005 13.9773 24.3763 14.4573C25.5962 15.6856 26.2893 17.3839 26.2762 19.1153L26.2751 19.1506L26.274 19.1806L26.2309 20H32.0983L32.1468 13.511C32.1568 12.1875 31.6384 10.9181 30.7048 9.97869Z" fill="white"/>
<path d="M20.1909 14.1241C21.1872 13.2278 21.8182 11.9327 21.8182 10.4865C21.8182 7.78039 19.6247 5.5874 16.9191 5.5874C14.213 5.5874 12.02 7.78039 12.02 10.4865C12.02 11.9301 12.6484 13.2242 13.643 14.1209C11.0959 14.3183 9.08393 16.4276 9.06551 19.0248L9.01709 19.9999H16.4654H24.6506L24.699 19.0979C24.7085 17.7749 24.1895 16.5055 23.2565 15.5661C22.4323 14.7351 21.345 14.2309 20.1909 14.1241Z" fill="white"/>
<path d="M3.15975 11.5105V13.3303C3.15975 14.084 3.77234 14.696 4.52649 14.696C5.28169 14.696 5.89322 14.084 5.89322 13.3303V11.5105H7.71098C8.46513 11.5105 9.07718 10.8979 9.07718 10.1437C9.07718 9.39012 8.46513 8.77754 7.71098 8.77754H5.89322V6.98452C5.89322 6.23037 5.28169 5.61884 4.52649 5.61884C3.77234 5.61884 3.15975 6.23037 3.15975 6.98452V8.77701H1.36621C0.611005 8.77701 0 9.38959 0 10.1432C0 10.8974 0.611005 11.51 1.36621 11.51H3.15975V11.5105Z" fill="white"/>
</svg>
