<svg width="20" height="16" viewBox="0 0 20 16" fill="none" xmlns="http://www.w3.org/2000/svg">
<path d="M18.4645 16C18.9362 16 19.3449 15.8505 19.6923 15.5552L13.7473 9.84767C13.6046 9.94572 13.4664 10.0411 13.3358 10.1317C12.8909 10.4464 12.5298 10.692 12.2525 10.8679C11.9753 11.0443 11.6064 11.2241 11.146 11.4076C10.6852 11.5913 10.256 11.6829 9.85781 11.6829H9.84615H9.8345C9.43627 11.6829 9.00702 11.5914 8.54632 11.4076C8.0856 11.2241 7.71675 11.0443 7.43978 10.8679C7.16255 10.692 6.80165 10.4465 6.35652 10.1317C6.23248 10.0444 6.09491 9.94865 5.94618 9.84613L0 15.5552C0.347409 15.8505 0.756383 16 1.22803 16H18.4645Z" fill="#4899B3"/>
<path d="M1.11001 5.94506C0.692526 5.66672 0.322309 5.34795 0 4.98889V13.4774L4.91744 8.56C3.93367 7.87319 2.66614 7.00255 1.11001 5.94506Z" fill="#4899B3"/>
<path d="M18.593 5.94506C17.0962 6.95814 15.824 7.83029 14.7764 8.56196L19.6919 13.4776V4.98889C19.3767 5.34073 19.0105 5.65929 18.593 5.94506Z" fill="#4899B3"/>
<path d="M17.9342 0H1.75862C1.1943 0 0.760444 0.190561 0.456512 0.571289C0.152329 0.952197 0.000488281 1.42856 0.000488281 1.99985C0.000488281 2.46131 0.201989 2.96131 0.604813 3.49999C1.00764 4.03846 1.43627 4.46141 1.89051 4.76906C2.13953 4.945 2.89047 5.46706 4.14335 6.33506C4.81968 6.80374 5.40784 7.21225 5.91328 7.56477C6.34409 7.86495 6.71563 8.1249 7.02239 8.34063C7.05761 8.36534 7.11299 8.40495 7.18649 8.45751C7.26569 8.51439 7.3659 8.58657 7.48953 8.67585C7.72761 8.84803 7.92539 8.98722 8.08292 9.09354C8.24023 9.19991 8.43083 9.31871 8.65442 9.45064C8.87784 9.58239 9.08856 9.68146 9.28635 9.74735C9.48417 9.81321 9.66729 9.84624 9.83576 9.84624H9.8467H9.85764C10.0261 9.84624 10.2092 9.81321 10.4071 9.74735C10.6048 9.68146 10.8154 9.5826 11.039 9.45064C11.2624 9.31871 11.4527 9.19966 11.6105 9.09354C11.768 8.98722 11.9658 8.84807 12.2039 8.67585C12.3273 8.58657 12.4275 8.51435 12.5067 8.45769C12.5803 8.40492 12.6356 8.36555 12.671 8.34063C12.91 8.17435 13.2824 7.91546 13.7831 7.56781C14.6941 6.93481 16.0359 6.00313 17.8139 4.76906C18.3486 4.39556 18.7954 3.94483 19.1545 3.41751C19.5129 2.8902 19.6926 2.33707 19.6926 1.75831C19.6926 1.27476 19.5184 0.860992 19.1707 0.516374C18.8226 0.172184 18.4104 0 17.9342 0Z" fill="#4899B3"/>
</svg>
