<svg width="25" height="25" viewBox="0 0 25 25" fill="none" xmlns="http://www.w3.org/2000/svg">
<path fill-rule="evenodd" clip-rule="evenodd" d="M3.125 0C2.38533 0 1.78571 0.599618 1.78571 1.33929V14.5864C0.729934 15.088 0 16.1641 0 17.4107C0 18.6573 0.729934 19.7334 1.78571 20.235V23.6607C1.78571 24.4004 2.38533 25 3.125 25C3.86467 25 4.46429 24.4004 4.46429 23.6607V20.235C5.52007 19.7334 6.25 18.6573 6.25 17.4107C6.25 16.1641 5.52007 15.088 4.46429 14.5864V1.33929C4.46429 0.599619 3.86467 0 3.125 0ZM12.0536 0C11.3139 0 10.7143 0.599618 10.7143 1.33929V10.1222C9.65851 10.6237 8.92857 11.6998 8.92857 12.9464C8.92857 14.193 9.65851 15.2692 10.7143 15.7707V23.6607C10.7143 24.4004 11.3139 25 12.0536 25C12.7932 25 13.3929 24.4004 13.3929 23.6607V15.7707C14.4486 15.2692 15.1786 14.193 15.1786 12.9464C15.1786 11.6998 14.4486 10.6237 13.3929 10.1222V1.33929C13.3929 0.599619 12.7932 0 12.0536 0ZM19.6429 1.33929C19.6429 0.599618 20.2425 0 20.9821 0C21.7218 0 22.3214 0.599619 22.3214 1.33929V5.65787C23.3772 6.15942 24.1071 7.23554 24.1071 8.48214C24.1071 9.72875 23.3772 10.8049 22.3214 11.3064V23.6607C22.3214 24.4004 21.7218 25 20.9821 25C20.2425 25 19.6429 24.4004 19.6429 23.6607V11.3064C18.5871 10.8049 17.8571 9.72875 17.8571 8.48214C17.8571 7.23554 18.5871 6.15942 19.6429 5.65787V1.33929Z" fill="#C4C4C4"/>
</svg>
