<svg width="16" height="20" viewBox="0 0 16 20" fill="none" xmlns="http://www.w3.org/2000/svg">
<path d="M2.29626 19.0355C2.31883 19.5746 2.76243 20 3.30189 20H12.6982C13.2376 20 13.6812 19.5746 13.7038 19.0355L14.3748 4.87012H1.62524L2.29626 19.0355ZM10.1256 8.38855C10.1256 8.16284 10.3086 7.97977 10.5344 7.97977H11.1883C11.4139 7.97977 11.5971 8.16279 11.5971 8.38855V16.4816C11.5971 16.7073 11.4141 16.8904 11.1883 16.8904H10.5344C10.3087 16.8904 10.1256 16.7074 10.1256 16.4816V8.38855ZM7.2643 8.38855C7.2643 8.16284 7.44732 7.97977 7.67308 7.97977H8.32697C8.55263 7.97977 8.73575 8.16279 8.73575 8.38855V16.4816C8.73575 16.7073 8.55278 16.8904 8.32697 16.8904H7.67308C7.44737 16.8904 7.2643 16.7074 7.2643 16.4816V8.38855ZM4.40294 8.38855C4.40294 8.16284 4.58595 7.97977 4.81172 7.97977H5.46565C5.69136 7.97977 5.87443 8.16279 5.87443 8.38855V16.4816C5.87443 16.7073 5.69141 16.8904 5.46565 16.8904H4.81172C4.586 16.8904 4.40294 16.7074 4.40294 16.4816V8.38855Z" fill="#8C8C8C"/>
<path d="M14.8217 1.0303H10.4869V0.21078C10.4869 0.094398 10.3925 0 10.2761 0H5.72408C5.6077 0 5.51335 0.094398 5.51335 0.21078V1.03025H1.17848C0.829629 1.03025 0.546875 1.31305 0.546875 1.66191V3.64617H15.4533V1.66195C15.4533 1.3131 15.1706 1.0303 14.8217 1.0303Z" fill="#8C8C8C"/>
</svg>
